<svg width="30" height="22" viewBox="0 0 30 22" fill="none" xmlns="http://www.w3.org/2000/svg">
<path d="M29.5788 20.1453L24.0171 16.0966C26.1759 14.1212 27.2214 11.6137 26.9386 9.08992C26.6557 6.56611 25.066 4.21775 22.4963 2.52772C19.9266 0.837685 16.5722 -0.0655592 13.1229 0.00370867C9.67366 0.0729766 6.39163 1.10949 3.95171 2.90013C1.51179 4.69076 0.0994379 7.0994 0.00505344 9.6308C-0.0893311 12.1622 1.14143 14.6239 3.44427 16.5098C5.74711 18.3957 8.94698 19.5623 12.3859 19.7699C15.8249 19.9775 19.2415 19.2103 21.9333 17.6259L27.45 21.6746C27.5894 21.7777 27.7552 21.8595 27.9379 21.9154C28.1206 21.9712 28.3165 22 28.5144 22C28.7123 22 28.9082 21.9712 29.0909 21.9154C29.2736 21.8595 29.4394 21.7777 29.5788 21.6746C29.849 21.4694 30 21.1953 30 20.9099C30 20.6246 29.849 20.3505 29.5788 20.1453ZM13.5233 17.6259C11.4478 17.6259 9.41898 17.1742 7.69329 16.328C5.9676 15.4818 4.62259 14.279 3.82834 12.8718C3.03409 11.4646 2.82628 9.91609 3.23118 8.42219C3.63609 6.92829 4.63552 5.55605 6.1031 4.47901C7.57068 3.40197 9.44049 2.66849 11.4761 2.37134C13.5117 2.07418 15.6216 2.22669 17.5391 2.80958C19.4566 3.39247 21.0955 4.37956 22.2486 5.64603C23.4016 6.9125 24.0171 8.40146 24.0171 9.92463C24.0171 11.9671 22.9115 13.926 20.9435 15.3702C18.9756 16.8145 16.3064 17.6259 13.5233 17.6259Z" fill="white"/>
</svg>
