<svg width="30" height="22" viewBox="0 0 30 22" fill="none" xmlns="http://www.w3.org/2000/svg">
<path d="M20.5701 11.7803C22.048 10.9323 23.1267 9.76943 23.6561 8.45351C24.1856 7.13759 24.1395 5.73403 23.5243 4.4381C22.9091 3.14217 21.7553 2.01831 20.2235 1.22288C18.6917 0.42745 16.8581 0 14.9776 0C13.0972 0 11.2636 0.42745 9.73176 1.22288C8.19996 2.01831 7.04619 3.14217 6.43097 4.4381C5.81574 5.73403 5.76967 7.13759 6.29914 8.45351C6.82862 9.76943 7.90731 10.9323 9.38516 11.7803C6.85284 12.5202 4.64329 13.7474 2.99209 15.3311C1.34088 16.9148 0.309915 18.7956 0.00909244 20.7731C-0.0126827 20.9174 0.00474588 21.0635 0.0603826 21.203C0.116019 21.3424 0.208775 21.4725 0.333353 21.5859C0.58495 21.8147 0.950895 21.9613 1.35068 21.9934C1.75047 22.0254 2.15136 21.9404 2.46515 21.7569C2.77894 21.5734 2.97993 21.3065 3.02391 21.0149C3.35491 18.8659 4.75997 16.8811 6.97063 15.4398C9.18129 13.9985 12.0426 13.2018 15.0078 13.2018C17.973 13.2018 20.8343 13.9985 23.045 15.4398C25.2556 16.8811 26.6607 18.8659 26.9917 21.0149C27.0327 21.2851 27.2094 21.5345 27.4878 21.7152C27.7661 21.8959 28.1264 21.995 28.4991 21.9934H28.6649C29.06 21.9602 29.4212 21.8145 29.6697 21.588C29.9181 21.3615 30.0338 21.0725 29.9914 20.7841C29.6892 18.801 28.6526 16.9154 26.993 15.3292C25.3333 13.7431 23.113 12.5163 20.5701 11.7803ZM14.9776 10.9997C13.7851 10.9997 12.6193 10.7418 11.6278 10.2586C10.6362 9.7754 9.86336 9.08861 9.40699 8.28508C8.95062 7.48154 8.83122 6.59736 9.06387 5.74434C9.29653 4.89131 9.87079 4.10776 10.7141 3.49276C11.5573 2.87776 12.6317 2.45895 13.8013 2.28927C14.971 2.11959 16.1833 2.20668 17.2851 2.53951C18.3869 2.87234 19.3286 3.43598 19.9911 4.15914C20.6536 4.8823 21.0073 5.7325 21.0073 6.60224C21.0073 7.76852 20.372 8.88703 19.2412 9.71172C18.1105 10.5364 16.5768 10.9997 14.9776 10.9997Z" fill="white"/>
</svg>
