<svg width="30" height="22" viewBox="0 0 30 22" fill="none" xmlns="http://www.w3.org/2000/svg">
<path d="M17.9963 17.6143C18.3955 17.6143 18.7785 17.4988 19.0608 17.2932C19.3431 17.0876 19.5017 16.8087 19.5017 16.5179V14.3251C19.5017 14.0344 19.3431 13.7555 19.0608 13.5499C18.7785 13.3442 18.3955 13.2287 17.9963 13.2287C17.597 13.2287 17.2141 13.3442 16.9318 13.5499C16.6495 13.7555 16.4909 14.0344 16.4909 14.3251V16.5179C16.4909 16.8087 16.6495 17.0876 16.9318 17.2932C17.2141 17.4988 17.597 17.6143 17.9963 17.6143ZM11.9746 17.6143C12.3739 17.6143 12.7568 17.4988 13.0391 17.2932C13.3214 17.0876 13.48 16.8087 13.48 16.5179V14.3251C13.48 14.0344 13.3214 13.7555 13.0391 13.5499C12.7568 13.3442 12.3739 13.2287 11.9746 13.2287C11.5754 13.2287 11.1925 13.3442 10.9101 13.5499C10.6278 13.7555 10.4692 14.0344 10.4692 14.3251V16.5179C10.4692 16.8087 10.6278 17.0876 10.9101 17.2932C11.1925 17.4988 11.5754 17.6143 11.9746 17.6143ZM25.5233 4.45751H23.4459L20.8415 0.674922C20.7619 0.535738 20.6438 0.410003 20.4945 0.305575C20.3452 0.201147 20.1679 0.120271 19.9737 0.068C19.7795 0.0157292 19.5726 -0.00681251 19.366 0.00178351C19.1593 0.0103795 18.9573 0.0499287 18.7725 0.117959C18.5878 0.18599 18.4243 0.281039 18.2923 0.397169C18.1602 0.513298 18.0625 0.648011 18.0052 0.792889C17.9479 0.937767 17.9322 1.0897 17.9592 1.23918C17.9861 1.38867 18.0551 1.5325 18.1619 1.66168L20.0738 4.45751H9.89716L11.809 1.66168C11.9552 1.40612 11.9631 1.11976 11.8313 0.86009C11.6996 0.600423 11.4378 0.386675 11.0986 0.26176C10.7594 0.136846 10.3678 0.110013 10.0026 0.186649C9.63731 0.263285 9.32538 0.437716 9.1294 0.674922L6.52504 4.45751H4.44757C3.38352 4.4693 2.35937 4.75436 1.55574 5.26242C0.752112 5.77047 0.220628 6.46889 0.0550274 7.23449C-0.110573 8.00009 0.100349 8.78368 0.650592 9.44708C1.20084 10.1105 2.05505 10.611 3.06259 10.8605L4.17659 19.0397C4.28893 19.8538 4.8139 20.6083 5.64899 21.1556C6.48409 21.703 7.56934 22.0041 8.69283 22H21.3082C22.4317 22.0041 23.5169 21.703 24.352 21.1556C25.1871 20.6083 25.7121 19.8538 25.8244 19.0397L26.9384 10.8605C27.9482 10.6103 28.8037 10.1079 29.3536 9.44229C29.9034 8.77668 30.1121 7.99082 29.9426 7.22389C29.7731 6.45697 29.2364 5.75849 28.4275 5.25216C27.6187 4.74583 26.5899 4.46432 25.5233 4.45751ZM22.7986 18.8204C22.7611 19.0918 22.5861 19.3433 22.3078 19.5257C22.0294 19.7082 21.6676 19.8085 21.2931 19.8072H8.67778C8.30328 19.8085 7.94153 19.7082 7.66316 19.5257C7.3848 19.3433 7.20981 19.0918 7.17236 18.8204L6.10352 11.0359H23.8674L22.7986 18.8204ZM25.5233 8.84312H4.44757C4.04831 8.84312 3.6654 8.72761 3.38308 8.52199C3.10076 8.31638 2.94215 8.03751 2.94215 7.74672C2.94215 7.45594 3.10076 7.17706 3.38308 6.97145C3.6654 6.76583 4.04831 6.65032 4.44757 6.65032H25.5233C25.9226 6.65032 26.3055 6.76583 26.5878 6.97145C26.8702 7.17706 27.0288 7.45594 27.0288 7.74672C27.0288 8.03751 26.8702 8.31638 26.5878 8.52199C26.3055 8.72761 25.9226 8.84312 25.5233 8.84312Z" fill="white"/>
</svg>
